
<svg width="840" height="282" viewBox="0 0 840 282" fill="none" xmlns="http://www.w3.org/2000/svg">
  <path d="M179.5 11.5C167.5 16.5 150 24 133.5 40.5C117 57 104.5 81 97.5 106.5C90.5 132 89 159 95 180.5C101 202 114.5 218 135 221.5C155.5 225 183 216 203 199.5C223 183 235.5 159 241 137C246.5 115 244.5 96 235 81.5C225.5 67 208.5 57 191.5 51C174.5 45 157.5 43 145 44.5" stroke="#1a997f" stroke-width="15"/>
  <path d="M168 115V145" stroke="#1a997f" stroke-width="15" stroke-linecap="round"/>
  <path d="M126 115V145" stroke="#1a997f" stroke-width="15" stroke-linecap="round"/>
  <path d="M122 175.5C135.5 188.5 167 189 181 175.5" stroke="#1a997f" stroke-width="15" stroke-linecap="round"/>
  <path d="M477 60V222H509V60H477Z" fill="#2D2D2D"/>
  <path d="M538 60V222H607C638.6 222 660.667 209.667 673.2 185C685.733 160.333 686 127.333 673 96C660 64.6667 638.333 60 607 60H538ZM571 193V89H598C613.6 89 624.333 94.6667 630.2 106C636.067 117.333 636.333 137 630 165C623.667 193 613.667 193 598 193H571Z" fill="#2D2D2D"/>
  <path d="M735.633 222V60H695.633V222H735.633Z" fill="#2D2D2D"/>
  <path d="M790.773 222V60H750.773V222H790.773Z" fill="#2D2D2D"/>
  <path d="M839.984 60H799.984V222H839.984V60Z" fill="#1a997f"/>
  <path d="M325 60V222H371V60H325Z" fill="#2D2D2D"/>
  <path d="M441 222C455.8 222 468 218.2 477.6 210.6C487.2 203 494.4 192.6 499.2 179.4C504 166.2 506.4 151.6 506.4 135.6C506.4 119.6 504 105 499.2 91.8C494.4 78.6 487.2 68.2 477.6 60.6C468 53 455.8 49.2 441 49.2C426.2 49.2 414 53 404.4 60.6C394.8 68.2 387.6 78.6 382.8 91.8C378 105 375.6 119.6 375.6 135.6C375.6 151.6 378 166.2 382.8 179.4C387.6 192.6 394.8 203 404.4 210.6C414 218.2 426.2 222 441 222Z" fill="#2D2D2D"/>
  <path d="M441 193.2C433.8 193.2 428.2 191.4 424.2 187.8C420.2 184.2 417.4 179.4 415.8 173.4C414.2 167.4 413.4 160.2 413.4 151.8V117C413.4 108.6 414.2 101.4 415.8 95.4C417.4 89.4 420.2 84.6 424.2 81C428.2 77.4 433.8 75.6 441 75.6C448.2 75.6 453.8 77.4 457.8 81C461.8 84.6 464.6 89.4 466.2 95.4C467.8 101.4 468.6 108.6 468.6 117V151.8C468.6 160.2 467.8 167.4 466.2 173.4C464.6 179.4 461.8 184.2 457.8 187.8C453.8 191.4 448.2 193.2 441 193.2Z" fill="white"/>
  <path d="M479 281V236H657V281H479Z" fill="#2D2D2D"/>
</svg>
