
<svg width="112" height="32" viewBox="0 0 112 32" fill="none" xmlns="http://www.w3.org/2000/svg">
  <rect width="32" height="32" rx="8" fill="#1a997f"/>
  <path d="M9 10.5H23" stroke="white" stroke-width="2" stroke-linecap="round"/>
  <path d="M9 16H23" stroke="white" stroke-width="2" stroke-linecap="round"/>
  <path d="M9 21.5H16" stroke="white" stroke-width="2" stroke-linecap="round"/>
  <path d="M44 10H40V22H44V10Z" fill="#1a997f"/>
  <path d="M47.848 10V22H51.448V16.74H56.792V13.74H51.448V13H57.388V10H47.848Z" fill="#1a997f"/>
  <path d="M59.4766 10V22H63.0766V17.86H64.3966L67.0766 22H71.2766L67.9966 17.02C69.9166 16.36 71.0366 14.92 71.0366 12.86C71.0366 10.96 69.7566 10 67.9966 10H59.4766ZM63.0766 15.02V13H66.8166C67.4766 13 67.9966 13.28 67.9966 14.02C67.9966 14.76 67.4766 15.02 66.8166 15.02H63.0766Z" fill="#1a997f"/>
  <path d="M78.5572 10H72.7572V22H76.3572V18.38H78.5572C81.4372 18.38 83.5772 16.9 83.5772 14.2C83.5772 11.48 81.4372 10 78.5572 10ZM78.2972 15.38H76.3572V13H78.2972C79.3972 13 79.9772 13.48 79.9772 14.2C79.9772 14.9 79.3972 15.38 78.2972 15.38Z" fill="#1a997f"/>
  <path d="M85.1266 10V22H94.6066V19H88.7266V17.38H94.0466V14.62H88.7266V13H94.6066V10H85.1266Z" fill="#1a997f"/>
  <path d="M97.0625 22H100.662V10H97.0625V22Z" fill="#1a997f"/>
  <path d="M102.436 10V13H106.036V22H109.636V13H112.236V10H102.436Z" fill="#1a997f"/>
</svg>
